<svg width="350" height="105" viewBox="0 0 350 105" fill="none" xmlns="http://www.w3.org/2000/svg">
<path d="M23.0769 0V94.3662" stroke="url(#paint0_linear_8_25)" stroke-opacity="0.6" stroke-width="8"/>
<path d="M53.8462 22.5352V98.5916" stroke="url(#paint1_linear_8_25)" stroke-opacity="0.6" stroke-width="8"/>
<path d="M84.6154 43.662V94.3662" stroke="url(#paint2_linear_8_25)" stroke-opacity="0.6" stroke-width="8"/>
<path d="M100 102.5C101.381 102.5 102.5 101.381 102.5 100C102.5 98.6193 101.381 97.5 100 97.5V102.5ZM0 102.5L100 102.5V97.5L0 97.5L0 102.5Z" fill="url(#paint3_linear_8_25)"/>
<path d="M123.6 104.08H118.48V60.56H123.6V104.08ZM148.24 75.28C148.24 78.4373 147.579 81.168 146.256 83.472C144.933 85.776 143.163 87.5467 140.944 88.784C138.768 90.0213 136.336 90.64 133.648 90.64C131.216 90.64 129.061 90.0213 127.184 88.784C125.349 87.5467 123.899 85.776 122.832 83.472C121.808 81.168 121.296 78.4373 121.296 75.28C121.296 72.08 121.808 69.3493 122.832 67.088C123.899 64.784 125.349 63.0133 127.184 61.776C129.061 60.5387 131.216 59.92 133.648 59.92C136.336 59.92 138.768 60.5387 140.944 61.776C143.163 63.0133 144.933 64.784 146.256 67.088C147.579 69.3493 148.24 72.08 148.24 75.28ZM143.056 75.28C143.056 73.0187 142.587 71.0987 141.648 69.52C140.752 67.9413 139.536 66.7467 138 65.936C136.507 65.1253 134.843 64.72 133.008 64.72C131.515 64.72 130.043 65.1253 128.592 65.936C127.141 66.7467 125.947 67.9413 125.008 69.52C124.069 71.0987 123.6 73.0187 123.6 75.28C123.6 77.5413 124.069 79.4613 125.008 81.04C125.947 82.6187 127.141 83.8133 128.592 84.624C130.043 85.4347 131.515 85.84 133.008 85.84C134.843 85.84 136.507 85.4347 138 84.624C139.536 83.8133 140.752 82.6187 141.648 81.04C142.587 79.4613 143.056 77.5413 143.056 75.28ZM160.42 40.08V90H155.3V40.08H160.42ZM174.18 72.08C174.18 69.648 173.647 67.8133 172.58 66.576C171.556 65.3387 169.999 64.72 167.908 64.72C166.415 64.72 165.092 65.04 163.94 65.68C162.831 66.32 161.956 67.1947 161.316 68.304C160.719 69.4133 160.42 70.672 160.42 72.08H158.756C158.756 69.7333 159.204 67.664 160.1 65.872C160.996 64.0373 162.212 62.5867 163.748 61.52C165.327 60.4533 167.14 59.92 169.188 59.92C171.236 59.92 173.007 60.3467 174.5 61.2C176.036 62.0533 177.209 63.3333 178.02 65.04C178.873 66.7467 179.3 68.88 179.3 71.44V90H174.18V72.08ZM211.973 60.56L192.773 104.08H187.013L195.077 85.84L183.812 60.56H189.893L199.237 83.6L197.125 83.344L206.213 60.56H211.973ZM218.016 80.976C218.613 81.872 219.296 82.704 220.064 83.472C220.832 84.24 221.707 84.8587 222.688 85.328C223.712 85.7547 224.821 85.968 226.016 85.968C227.467 85.968 228.597 85.648 229.408 85.008C230.261 84.3253 230.688 83.408 230.688 82.256C230.688 81.232 230.347 80.3787 229.664 79.696C229.024 78.9707 228.192 78.3733 227.168 77.904C226.144 77.392 225.056 76.9227 223.904 76.496C222.624 75.984 221.323 75.3867 220 74.704C218.72 73.9787 217.632 73.0613 216.736 71.952C215.883 70.8 215.456 69.3707 215.456 67.664C215.456 65.9147 215.904 64.464 216.8 63.312C217.739 62.16 218.933 61.3067 220.384 60.752C221.877 60.1973 223.413 59.92 224.992 59.92C226.571 59.92 228.043 60.176 229.408 60.688C230.816 61.2 232.053 61.8827 233.12 62.736C234.187 63.5893 235.019 64.5707 235.616 65.68L231.52 68.304C230.709 67.1947 229.685 66.2773 228.448 65.552C227.253 64.8267 225.888 64.464 224.352 64.464C223.285 64.464 222.368 64.6987 221.6 65.168C220.832 65.6373 220.448 66.3627 220.448 67.344C220.448 68.112 220.747 68.7947 221.344 69.392C221.941 69.9893 222.709 70.5227 223.648 70.992C224.587 71.4613 225.568 71.9093 226.592 72.336C228.299 73.0187 229.856 73.7653 231.264 74.576C232.672 75.344 233.781 76.2827 234.592 77.392C235.445 78.5013 235.872 79.9307 235.872 81.68C235.872 84.24 234.933 86.3733 233.056 88.08C231.221 89.7867 228.789 90.64 225.76 90.64C223.797 90.64 222.027 90.2987 220.448 89.616C218.869 88.8907 217.525 87.9733 216.416 86.864C215.349 85.7547 214.539 84.624 213.984 83.472L218.016 80.976ZM242.613 40.08H247.733V90H242.613V40.08ZM259.667 80.912C259.667 82.0213 259.923 82.9813 260.435 83.792C260.989 84.6027 261.736 85.2213 262.675 85.648C263.656 86.032 264.765 86.224 266.003 86.224C267.581 86.224 268.989 85.904 270.227 85.264C271.507 84.624 272.509 83.728 273.235 82.576C274.003 81.3813 274.387 80.016 274.387 78.48L275.411 82.32C275.411 84.1973 274.835 85.7547 273.683 86.992C272.573 88.2293 271.187 89.1467 269.523 89.744C267.901 90.3413 266.28 90.64 264.659 90.64C262.867 90.64 261.181 90.2773 259.603 89.552C258.067 88.784 256.829 87.696 255.891 86.288C254.952 84.88 254.483 83.1733 254.483 81.168C254.483 78.3093 255.485 76.0267 257.491 74.32C259.539 72.5707 262.376 71.696 266.003 71.696C268.136 71.696 269.907 71.952 271.315 72.464C272.765 72.9333 273.917 73.488 274.771 74.128C275.624 74.7253 276.2 75.216 276.499 75.6V78.608C275.005 77.584 273.469 76.8587 271.891 76.432C270.312 75.9627 268.627 75.728 266.835 75.728C265.171 75.728 263.805 75.9413 262.739 76.368C261.715 76.7947 260.947 77.392 260.435 78.16C259.923 78.928 259.667 79.8453 259.667 80.912ZM258.899 67.344L256.403 63.568C257.512 62.7573 259.027 61.9467 260.947 61.136C262.909 60.3253 265.256 59.92 267.987 59.92C270.291 59.92 272.296 60.2827 274.003 61.008C275.752 61.6907 277.096 62.6933 278.035 64.016C279.016 65.3387 279.507 66.96 279.507 68.88V90H274.387V69.584C274.387 68.56 274.216 67.728 273.875 67.088C273.533 66.4053 273.043 65.872 272.403 65.488C271.805 65.104 271.101 64.8267 270.291 64.656C269.48 64.4853 268.627 64.4 267.731 64.4C266.28 64.4 264.957 64.5707 263.763 64.912C262.611 65.2533 261.629 65.6587 260.819 66.128C260.008 66.5973 259.368 67.0027 258.899 67.344ZM307.055 72.08C307.055 69.648 306.522 67.8133 305.455 66.576C304.388 65.3387 302.831 64.72 300.783 64.72C299.29 64.72 297.967 65.04 296.815 65.68C295.706 66.2773 294.831 67.1307 294.191 68.24C293.594 69.3493 293.295 70.6293 293.295 72.08V90H288.175V60.56H293.295V65.168C294.276 63.376 295.492 62.0533 296.943 61.2C298.436 60.3467 300.143 59.92 302.063 59.92C305.178 59.92 307.631 60.9653 309.423 63.056C311.258 65.104 312.175 67.8987 312.175 71.44V90H307.055V72.08ZM333.192 90.64C330.461 90.64 328.029 90 325.896 88.72C323.805 87.3973 322.163 85.584 320.968 83.28C319.816 80.976 319.24 78.3093 319.24 75.28C319.24 72.208 319.837 69.52 321.032 67.216C322.269 64.912 323.976 63.12 326.152 61.84C328.371 60.56 330.931 59.92 333.832 59.92C336.733 59.92 339.208 60.5387 341.256 61.776C343.347 62.9707 344.947 64.6987 346.056 66.96C347.165 69.2213 347.72 71.9093 347.72 75.024C347.72 75.3227 347.699 75.6427 347.656 75.984C347.656 76.2827 347.656 76.4747 347.656 76.56H322.504V72.208H343.624L341.576 75.152C341.704 74.9387 341.832 74.6187 341.96 74.192C342.088 73.7227 342.152 73.3387 342.152 73.04C342.152 71.2907 341.789 69.776 341.064 68.496C340.381 67.216 339.421 66.2133 338.184 65.488C336.947 64.7627 335.496 64.4 333.832 64.4C331.869 64.4 330.184 64.8267 328.776 65.68C327.411 66.4907 326.344 67.6853 325.576 69.264C324.851 70.8 324.467 72.6987 324.424 74.96C324.424 77.264 324.787 79.2267 325.512 80.848C326.237 82.4693 327.304 83.7067 328.712 84.56C330.12 85.4133 331.827 85.84 333.832 85.84C335.837 85.84 337.608 85.4133 339.144 84.56C340.68 83.664 341.981 82.32 343.048 80.528L347.208 83.152C345.672 85.6267 343.731 87.504 341.384 88.784C339.08 90.0213 336.349 90.64 333.192 90.64Z" fill="black"/>
<defs>
<linearGradient id="paint0_linear_8_25" x1="23.5769" y1="0" x2="23.5769" y2="94.3662" gradientUnits="userSpaceOnUse">
<stop stop-color="#EE1010"/>
<stop offset="0.932292" stop-color="#B00000" stop-opacity="0"/>
</linearGradient>
<linearGradient id="paint1_linear_8_25" x1="54.3462" y1="22.5352" x2="54.3462" y2="98.5916" gradientUnits="userSpaceOnUse">
<stop stop-color="#FFB800"/>
<stop offset="0.838542" stop-color="#FF6B00" stop-opacity="0"/>
</linearGradient>
<linearGradient id="paint2_linear_8_25" x1="85.1154" y1="43.662" x2="85.1154" y2="94.3662" gradientUnits="userSpaceOnUse">
<stop stop-color="#5185EA"/>
<stop offset="1" stop-color="#0337BB" stop-opacity="0"/>
</linearGradient>
<linearGradient id="paint3_linear_8_25" x1="0" y1="99.5" x2="100" y2="99.5" gradientUnits="userSpaceOnUse">
<stop stop-color="#CFCFCF" stop-opacity="0"/>
<stop offset="0.0001" stop-color="#CFCFCF" stop-opacity="0"/>
<stop offset="0.348716" stop-color="#585858" stop-opacity="0.868958"/>
<stop offset="0.838542"/>
</linearGradient>
</defs>
</svg>
